<svg width="19" height="19" viewBox="0 0 35 35" fill="none" xmlns="http://www.w3.org/2000/svg">
        <path d="M26.5417 10.9375C26.25 7.875 26.1042 4.8125 26.3958 1.60417C24.6458 3.9375 22.6042 5.97917 20.5625 8.02083C19.3958 5.39583 18.2292 2.77083 17.5 0C16.7708 2.77083 15.6042 5.39583 14.4375 8.02083C12.3958 6.125 10.3542 3.9375 8.60417 1.60417C8.89583 4.8125 8.75 7.875 8.45833 10.9375C5.6875 9.91667 2.625 8.75 0 7.29167C3.9375 14.2917 5.54167 22.6042 7.875 28C9.1875 32.0833 12.9792 35 17.5 35C22.0208 35 25.9583 32.0833 27.2708 27.8542C29.4583 22.6042 31.0625 14.2917 35 7.29167C32.375 8.75 29.3125 9.91667 26.5417 10.9375ZM24.7917 5.6875C24.7917 7.72917 24.7917 9.625 24.9375 11.375C25.375 11.2292 23.7708 11.8125 22.75 12.1042C22.3125 11.2292 21.875 10.3542 21.2917 9.33333C22.4583 8.3125 23.625 7.14583 24.7917 5.6875ZM10.0625 11.5208C10.2083 9.77083 10.2083 7.875 10.2083 5.6875C11.375 7 12.5417 8.3125 13.7083 9.47917C13.2708 10.3542 12.8333 11.375 12.25 12.25C11.0833 11.8125 9.625 11.375 10.0625 11.5208ZM5.10417 12.3958C7.29167 13.2708 9.33333 14 11.0833 14.5833C9.91667 16.7708 8.89583 18.9583 8.16667 20.8542C7.4375 18.6667 6.41667 15.6042 5.10417 12.3958ZM17.5 32.0833C13.4167 32.0833 10.2083 28.875 10.2083 24.7917C10.2083 20.7083 13.125 17.5 17.5 7.29167C21.875 17.5 24.7917 20.7083 24.7917 24.7917C24.7917 28.875 21.5833 32.0833 17.5 32.0833ZM26.8333 20.8542C26.1042 18.9583 25.0833 16.9167 23.9167 14.5833C25.6667 14 27.7083 13.2708 29.8958 12.3958C28.5833 15.6042 27.5625 18.5208 26.8333 20.8542Z" fill="#E9D985"/>
</svg>